<?xml version="1.0" encoding="UTF-8" standalone="no"?>
<!-- Generator: Adobe Illustrator 14.0.0, SVG Export Plug-In . SVG Version: 6.00 Build 43363)  -->

<svg
   xmlns:dc="http://purl.org/dc/elements/1.1/"
   xmlns:cc="http://creativecommons.org/ns#"
   xmlns:rdf="http://www.w3.org/1999/02/22-rdf-syntax-ns#"
   xmlns:svg="http://www.w3.org/2000/svg"
   xmlns="http://www.w3.org/2000/svg"
   xmlns:sodipodi="http://sodipodi.sourceforge.net/DTD/sodipodi-0.dtd"
   xmlns:inkscape="http://www.inkscape.org/namespaces/inkscape"
   version="1.1"
   id="Layer_1"
   x="0px"
   y="0px"
   width="1450.74"
   height="421.07169"
   viewBox="91.801 15.624 1450.7399 421.07167"
   enable-background="new 91.801 15.624 611.306 568.512"
   xml:space="preserve"
   inkscape:version="0.48.4 r9939"
   sodipodi:docname="android.avg.svg"><metadata
   id="metadata33"><rdf:RDF><cc:Work
       rdf:about=""><dc:format>image/svg+xml</dc:format><dc:type
         rdf:resource="http://purl.org/dc/dcmitype/StillImage" /><dc:title></dc:title></cc:Work></rdf:RDF></metadata><defs
   id="defs31">
	
	
</defs><sodipodi:namedview
   pagecolor="#090909"
   bordercolor="#666666"
   borderopacity="1"
   objecttolerance="10"
   gridtolerance="10"
   guidetolerance="10"
   inkscape:pageopacity="1"
   inkscape:pageshadow="2"
   inkscape:window-width="1440"
   inkscape:window-height="837"
   id="namedview29"
   showgrid="false"
   showguides="true"
   inkscape:guide-bbox="true"
   inkscape:snap-bbox="true"
   inkscape:snap-smooth-nodes="true"
   inkscape:object-nodes="true"
   fit-margin-top="0"
   fit-margin-left="0"
   fit-margin-right="0"
   fit-margin-bottom="0"
   inkscape:zoom="0.14676664"
   inkscape:cx="-181.45791"
   inkscape:cy="145.66104"
   inkscape:window-x="-8"
   inkscape:window-y="-8"
   inkscape:window-maximized="1"
   inkscape:current-layer="Layer_1"><sodipodi:guide
     orientation="0,1"
     position="105.726,420.49101"
     id="guide3022" /></sodipodi:namedview>
<g
   id="g5"
   transform="matrix(1.667943,0,0,1.667943,369.80025,-598.91995)"
   style="fill:#ffffff;fill-opacity:1">
		<path
   style="fill:#ffffff;fill-opacity:1"
   inkscape:connector-curvature="0"
   id="path7"
   d="m 182.321,584.327 v -82.168 h -46.106 c -24.536,0 -44.414,18.398 -44.414,41.089 0,22.681 19.885,41.079 44.414,41.079 h 14.131 v -17.861 h -14.063 c -14.27,0 -25.886,-10.039 -25.886,-23.218 0,-13.193 11.335,-23.228 25.593,-23.228 h 28.601 v 64.307 h 17.73 z" />
		<path
   style="fill:#ffffff;fill-opacity:1"
   inkscape:connector-curvature="0"
   id="path9"
   d="m 241.049,499.065 c -23.56,0 -42.651,16.204 -42.651,40.771 v 44.476 h 17.346 v -45.464 c 0,-15.82 13.521,-24.951 25.305,-24.951 11.768,0 25.049,9.131 25.049,24.951 l -0.005,45.464 h 17.595 v -44.476 c 0,-24.567 -19.092,-40.771 -42.639,-40.771 z" />
		<path
   style="fill:#ffffff;fill-opacity:1"
   inkscape:connector-curvature="0"
   id="path11"
   d="m 379.733,542.725 c 0,-23.682 -15.642,-40.571 -39.197,-40.571 h -39.092 v 17.858 h 40.039 c 15.173,0 21.44,10.628 21.44,22.469 0,11.834 -6.506,23.979 -21.672,23.979 l -40.039,-0.005 v 17.681 h 39.087 c 23.553,0 39.434,-17.729 39.434,-41.411 z" />
		<path
   style="fill:#ffffff;fill-opacity:1"
   inkscape:connector-curvature="0"
   id="path13"
   d="m 703.106,542.725 c 0,-23.682 -15.648,-40.571 -39.196,-40.571 h -39.087 v 17.858 h 40.039 c 15.174,0 21.436,10.628 21.436,22.469 0,11.834 -6.494,23.979 -21.68,23.979 l -40.027,-0.005 v 17.681 h 39.088 c 23.547,0 39.427,-17.729 39.427,-41.411 z" />
		<path
   style="fill:#ffffff;fill-opacity:1"
   inkscape:connector-curvature="0"
   id="path15"
   d="m 460.821,556.573 c 7.557,-4.121 11.305,-11.682 11.305,-24.621 0,-22.779 -12.086,-29.798 -35.645,-29.798 h -39.078 v 17.858 h 40.042 c 15.173,0 17.884,4.827 17.884,11.688 0,6.867 -2.21,12.734 -17.371,12.734 l -40.037,-0.008 -0.029,16.414 h 39.089 c 0.379,0 0.732,0 1.111,-0.015 7.751,0.85 13.806,7.437 13.806,15.462 0,2.556 0.452,4.992 -0.659,7.129 0.012,0.293 1.086,0.598 1.086,0.902 h 16.139 c 0,0.009 2.93,-17.503 -7.643,-27.745 z" />
		<path
   style="fill:#ffffff;fill-opacity:1"
   inkscape:connector-curvature="0"
   id="path17"
   d="m 488.324,542.059 c 0,23.363 18.151,42.316 40.552,42.316 22.401,0 40.552,-18.945 40.552,-42.316 0,-23.348 -18.151,-42.298 -40.552,-42.298 -22.401,0 -40.552,18.951 -40.552,42.298 z m 16.273,0 c 0,-13.973 10.876,-25.318 24.279,-25.318 13.403,0 24.279,11.341 24.279,25.318 0,14.001 -10.876,25.329 -24.279,25.329 -13.403,0 -24.279,-11.328 -24.279,-25.329 z" />
		<rect
   style="fill:#ffffff;fill-opacity:1"
   id="rect19"
   height="82.157997"
   width="17.773001"
   y="502.15399"
   x="589.22803" />
	</g><g
   id="g21"
   transform="translate(-126.347,6.7928655e-4)">
		<path
   style="fill:#94c147"
   inkscape:connector-curvature="0"
   id="path23"
   d="m 552.777,147.57 c -14.147,0 -25.622,11.652 -25.622,26.02 v 101.68 c 0,14.372 11.475,26.019 25.622,26.019 14.147,0 25.61,-11.646 25.61,-26.019 V 173.59 c 0.001,-14.368 -11.462,-26.02 -25.61,-26.02 z m -309.011,0 c -14.155,0 -25.618,11.652 -25.618,26.02 v 101.68 c 0,14.372 11.462,26.019 25.618,26.019 14.153,0 25.623,-11.646 25.623,-26.019 V 173.59 c -0.008,-14.368 -11.475,-26.02 -25.623,-26.02 z" />
		<path
   style="fill:#94c147"
   inkscape:connector-curvature="0"
   id="path25"
   d="m 284.799,148.364 v 185.768 c 0,11.035 8.948,19.98 19.983,19.98 h 22.815 v 56.567 c 0,14.37 11.47,26.016 25.623,26.016 14.148,0 25.623,-11.646 25.623,-26.016 v -56.567 h 39.878 v 56.567 c 0,14.37 11.463,26.016 25.61,26.016 14.147,0 25.622,-11.646 25.622,-26.016 v -56.567 h 22.828 c 11.022,0 19.971,-8.953 19.971,-19.98 V 148.364 H 284.799 l 0,0 z" />
		<path
   style="fill:#94c147"
   inkscape:connector-curvature="0"
   id="path27"
   d="m 452.302,52.105 21.057,-30.572 c 1.245,-1.819 0.939,-4.199 -0.695,-5.329 -1.637,-1.123 -3.968,-0.568 -5.225,1.251 l -21.875,31.75 c -14.404,-5.682 -30.418,-8.844 -47.293,-8.844 -16.87,0 -32.893,3.162 -47.297,8.844 l -21.875,-31.75 c -1.257,-1.819 -3.589,-2.375 -5.225,-1.251 -1.636,1.124 -1.946,3.509 -0.696,5.329 l 21.057,30.572 c -33.464,15.57 -56.951,45.166 -59.941,79.706 H 512.25 C 509.259,97.271 485.772,67.676 452.302,52.105 z M 350.187,100.28 c -6.965,0 -12.617,-5.646 -12.617,-12.616 0,-6.958 5.647,-12.61 12.617,-12.61 6.97,0 12.603,5.652 12.603,12.61 0,6.965 -5.64,12.616 -12.603,12.616 z m 97.744,0 c -6.97,0 -12.609,-5.646 -12.609,-12.616 0,-6.958 5.64,-12.61 12.609,-12.61 6.971,0 12.61,5.652 12.61,12.61 0,6.965 -5.64,12.616 -12.61,12.616 z" />
	</g>
<flowRoot
   xml:space="preserve"
   id="flowRoot3792"
   style="font-size:50px;font-style:normal;font-weight:normal;line-height:125%;letter-spacing:0px;word-spacing:0px;fill:#000000;fill-opacity:1;stroke:none;font-family:Sans"
   transform="translate(-34.546004,15.624679)"><flowRegion
     id="flowRegion3794"><rect
       id="rect3796"
       width="1011.8103"
       height="149.89783"
       x="548.48975"
       y="47.276413" /></flowRegion><flowPara
     id="flowPara3798"></flowPara></flowRoot><text
   xml:space="preserve"
   style="font-size:50px;font-style:normal;font-weight:normal;line-height:125%;letter-spacing:0px;word-spacing:0px;fill:#000000;fill-opacity:1;stroke:none;font-family:Sans"
   x="517.35059"
   y="190.57861"
   id="text3800"
   sodipodi:linespacing="125%"><tspan
     sodipodi:role="line"
     id="tspan3802"
     x="517.35059"
     y="190.57861"
     style="font-size:144px;font-style:normal;font-variant:normal;font-weight:normal;font-stretch:normal;fill:#ffffff;font-family:Arial;-inkscape-font-specification:Arial">Download for</tspan></text>
</svg>