<?xml version="1.0" encoding="UTF-8" standalone="no"?>
<!-- Generator: Adobe Illustrator 16.0.0, SVG Export Plug-In . SVG Version: 6.00 Build 0)  -->

<svg
   xmlns:dc="http://purl.org/dc/elements/1.1/"
   xmlns:cc="http://creativecommons.org/ns#"
   xmlns:rdf="http://www.w3.org/1999/02/22-rdf-syntax-ns#"
   xmlns:svg="http://www.w3.org/2000/svg"
   xmlns="http://www.w3.org/2000/svg"
   xmlns:sodipodi="http://sodipodi.sourceforge.net/DTD/sodipodi-0.dtd"
   xmlns:inkscape="http://www.inkscape.org/namespaces/inkscape"
   version="1.1"
   id="Layer_1"
   x="0px"
   y="0px"
   width="415px"
   height="414.996px"
   viewBox="0 0 415 414.996"
   enable-background="new 0 0 415 414.996"
   xml:space="preserve"
   inkscape:version="0.48.4 r9939"
   sodipodi:docname="email.svg"><metadata
   id="metadata9"><rdf:RDF><cc:Work
       rdf:about=""><dc:format>image/svg+xml</dc:format><dc:type
         rdf:resource="http://purl.org/dc/dcmitype/StillImage" /><dc:title></dc:title></cc:Work></rdf:RDF></metadata><defs
   id="defs7" /><sodipodi:namedview
   pagecolor="#505050"
   bordercolor="#666666"
   borderopacity="1"
   objecttolerance="10"
   gridtolerance="10"
   guidetolerance="10"
   inkscape:pageopacity="0"
   inkscape:pageshadow="2"
   inkscape:window-width="640"
   inkscape:window-height="480"
   id="namedview5"
   showgrid="false"
   inkscape:zoom="0.56868018"
   inkscape:cx="207.5"
   inkscape:cy="207.498"
   inkscape:window-x="0"
   inkscape:window-y="0"
   inkscape:window-maximized="0"
   inkscape:current-layer="Layer_1" />
<path
   d="M321.548,165.366L210.82,88.71c-2.464-1.913-5.982-2.091-8.668-0.202L93.276,165.472c-2.084,1.287-3.473,3.592-3.473,6.221  v137.479c0,4.035,3.271,7.307,7.308,7.307h220.776c4.037,0,7.307-3.271,7.307-7.307V171.692  C325.194,168.99,323.728,166.631,321.548,165.366z M206.399,103.369l98.488,68.183l-88.674,58.68l-4.716-3.251  c-2.458-1.962-6.005-2.172-8.719-0.285l-4.708,3.278l-88.061-58.469L206.399,103.369z M104.419,185.296l80.784,53.639  l-80.784,56.252V185.296z M120.381,301.863l86.601-60.302l4.728,3.259c0.188,0.145,0.384,0.278,0.584,0.402l82.161,56.641H120.381z   M310.581,295.286l-81.424-56.133l81.424-53.883V295.286z"
   id="path3"
   style="fill:#ffffff" />
</svg>