<?xml version="1.0" encoding="UTF-8" standalone="no"?>
<!-- Generator: Adobe Illustrator 16.0.0, SVG Export Plug-In . SVG Version: 6.00 Build 0)  -->

<svg
   xmlns:dc="http://purl.org/dc/elements/1.1/"
   xmlns:cc="http://creativecommons.org/ns#"
   xmlns:rdf="http://www.w3.org/1999/02/22-rdf-syntax-ns#"
   xmlns:svg="http://www.w3.org/2000/svg"
   xmlns="http://www.w3.org/2000/svg"
   xmlns:sodipodi="http://sodipodi.sourceforge.net/DTD/sodipodi-0.dtd"
   xmlns:inkscape="http://www.inkscape.org/namespaces/inkscape"
   version="1.1"
   id="Layer_2"
   x="0px"
   y="0px"
   width="158.16399"
   height="158.16048"
   viewBox="0 0 158.16399 158.16047"
   enable-background="new 0 0 841.89 595.28"
   xml:space="preserve"
   inkscape:version="0.48.4 r9939"
   sodipodi:docname="Google_Play_logo.svg"><metadata
   id="metadata55"><rdf:RDF><cc:Work
       rdf:about=""><dc:format>image/svg+xml</dc:format><dc:type
         rdf:resource="http://purl.org/dc/dcmitype/StillImage" /></cc:Work></rdf:RDF></metadata><defs
   id="defs53" /><sodipodi:namedview
   pagecolor="#ffffff"
   bordercolor="#666666"
   borderopacity="1"
   objecttolerance="10"
   gridtolerance="10"
   guidetolerance="10"
   inkscape:pageopacity="0"
   inkscape:pageshadow="2"
   inkscape:window-width="1440"
   inkscape:window-height="837"
   id="namedview51"
   showgrid="false"
   fit-margin-top="14.5"
   fit-margin-left="18.62"
   fit-margin-right="18.62"
   fit-margin-bottom="14.5"
   inkscape:zoom="1.5858083"
   inkscape:cx="283.15143"
   inkscape:cy="56.157881"
   inkscape:window-x="-8"
   inkscape:window-y="-8"
   inkscape:window-maximized="1"
   inkscape:current-layer="Layer_2" />




<linearGradient
   id="SVGID_1_"
   gradientUnits="userSpaceOnUse"
   x1="226.8584"
   y1="284.50681"
   x2="210.5396"
   y2="252.47929"
   gradientTransform="translate(-106.075,-192.10063)">
	<stop
   offset="0"
   style="stop-color:#FCD08F"
   id="stop12" />
	<stop
   offset="1"
   style="stop-color:#F79673"
   id="stop14" />
</linearGradient>
<path
   d="m 107.798,99.022362 c 15.287,-8.367 26.962,-14.758 28.024,-15.34 3.168,-1.734 6.487,-6.159 0,-9.696 -2.085,-1.139 -13.446,-7.334 -28.042,-15.297 l -20.075,20.229 20.093,20.104 z"
   id="path16"
   inkscape:connector-curvature="0"
   style="fill:url(#SVGID_1_)" />
<linearGradient
   id="SVGID_2_"
   gradientUnits="userSpaceOnUse"
   x1="203.1299"
   y1="279.73831"
   x2="140.9948"
   y2="346.37"
   gradientTransform="translate(-106.075,-192.10063)">
	<stop
   offset="0"
   style="stop-color:#E74047"
   id="stop19" />
	<stop
   offset="1"
   style="stop-color:#7F50A0"
   id="stop21" />
</linearGradient>
<path
   d="M 87.704,78.918362 23.496,143.61637 c 1.45,0.184 3.194,-0.2 5.2,-1.298 4.153,-2.273 48.753,-26.686 79.102,-43.298008 l -20.094,-20.102 z"
   id="path23"
   inkscape:connector-curvature="0"
   style="fill:url(#SVGID_2_)" />
<linearGradient
   id="SVGID_3_"
   gradientUnits="userSpaceOnUse"
   x1="203.4604"
   y1="261.66989"
   x2="140.33949"
   y2="196.3062"
   gradientTransform="translate(-106.075,-192.10063)">
	<stop
   offset="0"
   style="stop-color:#E6FFAB"
   id="stop26" />
	<stop
   offset="1"
   style="stop-color:#47BEBC"
   id="stop28" />
</linearGradient>
<path
   d="m 87.704,78.918362 20.075,-20.229 c 0,0 -74.616,-40.708999 -79.083,-43.145999 -1.717,-0.937 -3.589,-1.264 -5.246,-0.895 l 64.254,64.269999 z"
   id="path30"
   inkscape:connector-curvature="0"
   style="fill:url(#SVGID_3_)" />
<linearGradient
   id="SVGID_4_"
   gradientUnits="userSpaceOnUse"
   x1="159.23779"
   y1="335.7168"
   x2="159.23779"
   y2="206.7505"
   gradientTransform="translate(-106.075,-192.10063)">
	<stop
   offset="0"
   style="stop-color:#84E9DB"
   id="stop33" />
	<stop
   offset="1"
   style="stop-color:#197491"
   id="stop35" />
</linearGradient>
<path
   d="M 87.704,78.918362 23.449,14.649363 c -2.654,0.592 -4.828999,2.889 -4.828999,7.506 0,7.499999 0,107.453007 0,113.750007 0,4.348 1.710999,7.406 4.874999,7.711 L 87.704,78.918362 z"
   id="path37"
   inkscape:connector-curvature="0"
   style="fill:url(#SVGID_4_)" />






</svg>